<?xml version="1.0" encoding="utf-8" standalone="no"?>
<!DOCTYPE svg PUBLIC "-//W3C//DTD SVG 1.1//EN"
  "http://www.w3.org/Graphics/SVG/1.1/DTD/svg11.dtd">
<svg xmlns:xlink="http://www.w3.org/1999/xlink" width="720pt" height="360pt" viewBox="0 0 720 360" xmlns="http://www.w3.org/2000/svg" version="1.1">
 <metadata>
  <rdf:RDF xmlns:dc="http://purl.org/dc/elements/1.1/" xmlns:cc="http://creativecommons.org/ns#" xmlns:rdf="http://www.w3.org/1999/02/22-rdf-syntax-ns#">
   <cc:Work>
    <dc:type rdf:resource="http://purl.org/dc/dcmitype/StillImage"/>
    <dc:date>2025-12-19T16:49:51.220711</dc:date>
    <dc:format>image/svg+xml</dc:format>
    <dc:creator>
     <cc:Agent>
      <dc:title>Matplotlib v3.10.7, https://matplotlib.org/</dc:title>
     </cc:Agent>
    </dc:creator>
   </cc:Work>
  </rdf:RDF>
 </metadata>
 <defs>
  <style type="text/css">*{stroke-linejoin: round; stroke-linecap: butt}</style>
 </defs>
 <g id="figure_1">
  <g id="patch_1">
   <path d="M 0 360 
L 720 360 
L 720 0 
L 0 0 
L 0 360 
z
" style="fill: none"/>
  </g>
  <g id="axes_1">
   <g id="patch_2">
    <path d="M 61.59225 306.564 
L 702.504 306.564 
L 702.504 33.576 
L 61.59225 33.576 
L 61.59225 306.564 
z
" style="fill: none"/>
   </g>
   <g id="matplotlib.axis_1">
    <g id="xtick_1">
     <g id="line2d_1">
      <path d="M 90.724602 306.564 
L 90.724602 33.576 
" clip-path="url(#pe6b572b3de)" style="fill: none; stroke: #ffffff; stroke-width: 1.5; stroke-linecap: round"/>
     </g>
     <g id="text_1">
      <!-- 0 -->
      <g style="fill: #262626" transform="translate(87.944134 326.221812) scale(0.1 -0.1)">
       <defs>
        <path id="ArialMT-30" d="M 266 2259 
Q 266 3072 433 3567 
Q 600 4063 929 4331 
Q 1259 4600 1759 4600 
Q 2128 4600 2406 4451 
Q 2684 4303 2865 4023 
Q 3047 3744 3150 3342 
Q 3253 2941 3253 2259 
Q 3253 1453 3087 958 
Q 2922 463 2592 192 
Q 2263 -78 1759 -78 
Q 1097 -78 719 397 
Q 266 969 266 2259 
z
M 844 2259 
Q 844 1131 1108 757 
Q 1372 384 1759 384 
Q 2147 384 2411 759 
Q 2675 1134 2675 2259 
Q 2675 3391 2411 3762 
Q 2147 4134 1753 4134 
Q 1366 4134 1134 3806 
Q 844 3388 844 2259 
z
" transform="scale(0.015625)"/>
       </defs>
       <use xlink:href="#ArialMT-30"/>
      </g>
     </g>
    </g>
    <g id="xtick_2">
     <g id="line2d_2">
      <path d="M 217.387003 306.564 
L 217.387003 33.576 
" clip-path="url(#pe6b572b3de)" style="fill: none; stroke: #ffffff; stroke-width: 1.5; stroke-linecap: round"/>
     </g>
     <g id="text_2">
      <!-- 5 -->
      <g style="fill: #262626" transform="translate(214.606535 326.221812) scale(0.1 -0.1)">
       <defs>
        <path id="ArialMT-35" d="M 266 1200 
L 856 1250 
Q 922 819 1161 601 
Q 1400 384 1738 384 
Q 2144 384 2425 690 
Q 2706 997 2706 1503 
Q 2706 1984 2436 2262 
Q 2166 2541 1728 2541 
Q 1456 2541 1237 2417 
Q 1019 2294 894 2097 
L 366 2166 
L 809 4519 
L 3088 4519 
L 3088 3981 
L 1259 3981 
L 1013 2750 
Q 1425 3038 1878 3038 
Q 2478 3038 2890 2622 
Q 3303 2206 3303 1553 
Q 3303 931 2941 478 
Q 2500 -78 1738 -78 
Q 1113 -78 717 272 
Q 322 622 266 1200 
z
" transform="scale(0.015625)"/>
       </defs>
       <use xlink:href="#ArialMT-35"/>
      </g>
     </g>
    </g>
    <g id="xtick_3">
     <g id="line2d_3">
      <path d="M 344.049405 306.564 
L 344.049405 33.576 
" clip-path="url(#pe6b572b3de)" style="fill: none; stroke: #ffffff; stroke-width: 1.5; stroke-linecap: round"/>
     </g>
     <g id="text_3">
      <!-- 10 -->
      <g style="fill: #262626" transform="translate(338.488467 326.221812) scale(0.1 -0.1)">
       <defs>
        <path id="ArialMT-31" d="M 2384 0 
L 1822 0 
L 1822 3584 
Q 1619 3391 1289 3197 
Q 959 3003 697 2906 
L 697 3450 
Q 1169 3672 1522 3987 
Q 1875 4303 2022 4600 
L 2384 4600 
L 2384 0 
z
" transform="scale(0.015625)"/>
       </defs>
       <use xlink:href="#ArialMT-31"/>
       <use xlink:href="#ArialMT-30" transform="translate(55.615234 0)"/>
      </g>
     </g>
    </g>
    <g id="xtick_4">
     <g id="line2d_4">
      <path d="M 470.711806 306.564 
L 470.711806 33.576 
" clip-path="url(#pe6b572b3de)" style="fill: none; stroke: #ffffff; stroke-width: 1.5; stroke-linecap: round"/>
     </g>
     <g id="text_4">
      <!-- 15 -->
      <g style="fill: #262626" transform="translate(465.150868 326.221812) scale(0.1 -0.1)">
       <use xlink:href="#ArialMT-31"/>
       <use xlink:href="#ArialMT-35" transform="translate(55.615234 0)"/>
      </g>
     </g>
    </g>
    <g id="xtick_5">
     <g id="line2d_5">
      <path d="M 597.374207 306.564 
L 597.374207 33.576 
" clip-path="url(#pe6b572b3de)" style="fill: none; stroke: #ffffff; stroke-width: 1.5; stroke-linecap: round"/>
     </g>
     <g id="text_5">
      <!-- 20 -->
      <g style="fill: #262626" transform="translate(591.81327 326.221812) scale(0.1 -0.1)">
       <defs>
        <path id="ArialMT-32" d="M 3222 541 
L 3222 0 
L 194 0 
Q 188 203 259 391 
Q 375 700 629 1000 
Q 884 1300 1366 1694 
Q 2113 2306 2375 2664 
Q 2638 3022 2638 3341 
Q 2638 3675 2398 3904 
Q 2159 4134 1775 4134 
Q 1369 4134 1125 3890 
Q 881 3647 878 3216 
L 300 3275 
Q 359 3922 746 4261 
Q 1134 4600 1788 4600 
Q 2447 4600 2831 4234 
Q 3216 3869 3216 3328 
Q 3216 3053 3103 2787 
Q 2991 2522 2730 2228 
Q 2469 1934 1863 1422 
Q 1356 997 1212 845 
Q 1069 694 975 541 
L 3222 541 
z
" transform="scale(0.015625)"/>
       </defs>
       <use xlink:href="#ArialMT-32"/>
       <use xlink:href="#ArialMT-30" transform="translate(55.615234 0)"/>
      </g>
     </g>
    </g>
    <g id="text_6">
     <!-- Hour -->
     <g style="fill: #262626" transform="translate(369.044063 340.798688) scale(0.12 -0.12)">
      <defs>
       <path id="ArialMT-48" d="M 513 0 
L 513 4581 
L 1119 4581 
L 1119 2700 
L 3500 2700 
L 3500 4581 
L 4106 4581 
L 4106 0 
L 3500 0 
L 3500 2159 
L 1119 2159 
L 1119 0 
L 513 0 
z
" transform="scale(0.015625)"/>
       <path id="ArialMT-6f" d="M 213 1659 
Q 213 2581 725 3025 
Q 1153 3394 1769 3394 
Q 2453 3394 2887 2945 
Q 3322 2497 3322 1706 
Q 3322 1066 3130 698 
Q 2938 331 2570 128 
Q 2203 -75 1769 -75 
Q 1072 -75 642 372 
Q 213 819 213 1659 
z
M 791 1659 
Q 791 1022 1069 705 
Q 1347 388 1769 388 
Q 2188 388 2466 706 
Q 2744 1025 2744 1678 
Q 2744 2294 2464 2611 
Q 2184 2928 1769 2928 
Q 1347 2928 1069 2612 
Q 791 2297 791 1659 
z
" transform="scale(0.015625)"/>
       <path id="ArialMT-75" d="M 2597 0 
L 2597 488 
Q 2209 -75 1544 -75 
Q 1250 -75 995 37 
Q 741 150 617 320 
Q 494 491 444 738 
Q 409 903 409 1263 
L 409 3319 
L 972 3319 
L 972 1478 
Q 972 1038 1006 884 
Q 1059 663 1231 536 
Q 1403 409 1656 409 
Q 1909 409 2131 539 
Q 2353 669 2445 892 
Q 2538 1116 2538 1541 
L 2538 3319 
L 3100 3319 
L 3100 0 
L 2597 0 
z
" transform="scale(0.015625)"/>
       <path id="ArialMT-72" d="M 416 0 
L 416 3319 
L 922 3319 
L 922 2816 
Q 1116 3169 1280 3281 
Q 1444 3394 1641 3394 
Q 1925 3394 2219 3213 
L 2025 2691 
Q 1819 2813 1613 2813 
Q 1428 2813 1281 2702 
Q 1134 2591 1072 2394 
Q 978 2094 978 1738 
L 978 0 
L 416 0 
z
" transform="scale(0.015625)"/>
      </defs>
      <use xlink:href="#ArialMT-48"/>
      <use xlink:href="#ArialMT-6f" transform="translate(72.216797 0)"/>
      <use xlink:href="#ArialMT-75" transform="translate(127.832031 0)"/>
      <use xlink:href="#ArialMT-72" transform="translate(183.447266 0)"/>
     </g>
    </g>
   </g>
   <g id="matplotlib.axis_2">
    <g id="ytick_1">
     <g id="line2d_6">
      <path d="M 61.59225 294.898493 
L 702.504 294.898493 
" clip-path="url(#pe6b572b3de)" style="fill: none; stroke: #ffffff; stroke-width: 1.5; stroke-linecap: round"/>
     </g>
     <g id="text_7">
      <!-- 0 -->
      <g style="fill: #262626" transform="translate(43.531313 298.477399) scale(0.1 -0.1)">
       <use xlink:href="#ArialMT-30"/>
      </g>
     </g>
    </g>
    <g id="ytick_2">
     <g id="line2d_7">
      <path d="M 61.59225 256.902213 
L 702.504 256.902213 
" clip-path="url(#pe6b572b3de)" style="fill: none; stroke: #ffffff; stroke-width: 1.5; stroke-linecap: round"/>
     </g>
     <g id="text_8">
      <!-- 100 -->
      <g style="fill: #262626" transform="translate(32.409438 260.481119) scale(0.1 -0.1)">
       <use xlink:href="#ArialMT-31"/>
       <use xlink:href="#ArialMT-30" transform="translate(55.615234 0)"/>
       <use xlink:href="#ArialMT-30" transform="translate(111.230469 0)"/>
      </g>
     </g>
    </g>
    <g id="ytick_3">
     <g id="line2d_8">
      <path d="M 61.59225 218.905933 
L 702.504 218.905933 
" clip-path="url(#pe6b572b3de)" style="fill: none; stroke: #ffffff; stroke-width: 1.5; stroke-linecap: round"/>
     </g>
     <g id="text_9">
      <!-- 200 -->
      <g style="fill: #262626" transform="translate(32.409438 222.484839) scale(0.1 -0.1)">
       <use xlink:href="#ArialMT-32"/>
       <use xlink:href="#ArialMT-30" transform="translate(55.615234 0)"/>
       <use xlink:href="#ArialMT-30" transform="translate(111.230469 0)"/>
      </g>
     </g>
    </g>
    <g id="ytick_4">
     <g id="line2d_9">
      <path d="M 61.59225 180.909653 
L 702.504 180.909653 
" clip-path="url(#pe6b572b3de)" style="fill: none; stroke: #ffffff; stroke-width: 1.5; stroke-linecap: round"/>
     </g>
     <g id="text_10">
      <!-- 300 -->
      <g style="fill: #262626" transform="translate(32.409438 184.488559) scale(0.1 -0.1)">
       <defs>
        <path id="ArialMT-33" d="M 269 1209 
L 831 1284 
Q 928 806 1161 595 
Q 1394 384 1728 384 
Q 2125 384 2398 659 
Q 2672 934 2672 1341 
Q 2672 1728 2419 1979 
Q 2166 2231 1775 2231 
Q 1616 2231 1378 2169 
L 1441 2663 
Q 1497 2656 1531 2656 
Q 1891 2656 2178 2843 
Q 2466 3031 2466 3422 
Q 2466 3731 2256 3934 
Q 2047 4138 1716 4138 
Q 1388 4138 1169 3931 
Q 950 3725 888 3313 
L 325 3413 
Q 428 3978 793 4289 
Q 1159 4600 1703 4600 
Q 2078 4600 2393 4439 
Q 2709 4278 2876 4000 
Q 3044 3722 3044 3409 
Q 3044 3113 2884 2869 
Q 2725 2625 2413 2481 
Q 2819 2388 3044 2092 
Q 3269 1797 3269 1353 
Q 3269 753 2831 336 
Q 2394 -81 1725 -81 
Q 1122 -81 723 278 
Q 325 638 269 1209 
z
" transform="scale(0.015625)"/>
       </defs>
       <use xlink:href="#ArialMT-33"/>
       <use xlink:href="#ArialMT-30" transform="translate(55.615234 0)"/>
       <use xlink:href="#ArialMT-30" transform="translate(111.230469 0)"/>
      </g>
     </g>
    </g>
    <g id="ytick_5">
     <g id="line2d_10">
      <path d="M 61.59225 142.913373 
L 702.504 142.913373 
" clip-path="url(#pe6b572b3de)" style="fill: none; stroke: #ffffff; stroke-width: 1.5; stroke-linecap: round"/>
     </g>
     <g id="text_11">
      <!-- 400 -->
      <g style="fill: #262626" transform="translate(32.409438 146.492279) scale(0.1 -0.1)">
       <defs>
        <path id="ArialMT-34" d="M 2069 0 
L 2069 1097 
L 81 1097 
L 81 1613 
L 2172 4581 
L 2631 4581 
L 2631 1613 
L 3250 1613 
L 3250 1097 
L 2631 1097 
L 2631 0 
L 2069 0 
z
M 2069 1613 
L 2069 3678 
L 634 1613 
L 2069 1613 
z
" transform="scale(0.015625)"/>
       </defs>
       <use xlink:href="#ArialMT-34"/>
       <use xlink:href="#ArialMT-30" transform="translate(55.615234 0)"/>
       <use xlink:href="#ArialMT-30" transform="translate(111.230469 0)"/>
      </g>
     </g>
    </g>
    <g id="ytick_6">
     <g id="line2d_11">
      <path d="M 61.59225 104.917092 
L 702.504 104.917092 
" clip-path="url(#pe6b572b3de)" style="fill: none; stroke: #ffffff; stroke-width: 1.5; stroke-linecap: round"/>
     </g>
     <g id="text_12">
      <!-- 500 -->
      <g style="fill: #262626" transform="translate(32.409438 108.495999) scale(0.1 -0.1)">
       <use xlink:href="#ArialMT-35"/>
       <use xlink:href="#ArialMT-30" transform="translate(55.615234 0)"/>
       <use xlink:href="#ArialMT-30" transform="translate(111.230469 0)"/>
      </g>
     </g>
    </g>
    <g id="ytick_7">
     <g id="line2d_12">
      <path d="M 61.59225 66.920812 
L 702.504 66.920812 
" clip-path="url(#pe6b572b3de)" style="fill: none; stroke: #ffffff; stroke-width: 1.5; stroke-linecap: round"/>
     </g>
     <g id="text_13">
      <!-- 600 -->
      <g style="fill: #262626" transform="translate(32.409438 70.499719) scale(0.1 -0.1)">
       <defs>
        <path id="ArialMT-36" d="M 3184 3459 
L 2625 3416 
Q 2550 3747 2413 3897 
Q 2184 4138 1850 4138 
Q 1581 4138 1378 3988 
Q 1113 3794 959 3422 
Q 806 3050 800 2363 
Q 1003 2672 1297 2822 
Q 1591 2972 1913 2972 
Q 2475 2972 2870 2558 
Q 3266 2144 3266 1488 
Q 3266 1056 3080 686 
Q 2894 316 2569 119 
Q 2244 -78 1831 -78 
Q 1128 -78 684 439 
Q 241 956 241 2144 
Q 241 3472 731 4075 
Q 1159 4600 1884 4600 
Q 2425 4600 2770 4297 
Q 3116 3994 3184 3459 
z
M 888 1484 
Q 888 1194 1011 928 
Q 1134 663 1356 523 
Q 1578 384 1822 384 
Q 2178 384 2434 671 
Q 2691 959 2691 1453 
Q 2691 1928 2437 2201 
Q 2184 2475 1800 2475 
Q 1419 2475 1153 2201 
Q 888 1928 888 1484 
z
" transform="scale(0.015625)"/>
       </defs>
       <use xlink:href="#ArialMT-36"/>
       <use xlink:href="#ArialMT-30" transform="translate(55.615234 0)"/>
       <use xlink:href="#ArialMT-30" transform="translate(111.230469 0)"/>
      </g>
     </g>
    </g>
    <g id="text_14">
     <!-- Average Count -->
     <g style="fill: #262626" transform="translate(25.883813 209.987812) rotate(-90) scale(0.12 -0.12)">
      <defs>
       <path id="ArialMT-41" d="M -9 0 
L 1750 4581 
L 2403 4581 
L 4278 0 
L 3588 0 
L 3053 1388 
L 1138 1388 
L 634 0 
L -9 0 
z
M 1313 1881 
L 2866 1881 
L 2388 3150 
Q 2169 3728 2063 4100 
Q 1975 3659 1816 3225 
L 1313 1881 
z
" transform="scale(0.015625)"/>
       <path id="ArialMT-76" d="M 1344 0 
L 81 3319 
L 675 3319 
L 1388 1331 
Q 1503 1009 1600 663 
Q 1675 925 1809 1294 
L 2547 3319 
L 3125 3319 
L 1869 0 
L 1344 0 
z
" transform="scale(0.015625)"/>
       <path id="ArialMT-65" d="M 2694 1069 
L 3275 997 
Q 3138 488 2766 206 
Q 2394 -75 1816 -75 
Q 1088 -75 661 373 
Q 234 822 234 1631 
Q 234 2469 665 2931 
Q 1097 3394 1784 3394 
Q 2450 3394 2872 2941 
Q 3294 2488 3294 1666 
Q 3294 1616 3291 1516 
L 816 1516 
Q 847 969 1125 678 
Q 1403 388 1819 388 
Q 2128 388 2347 550 
Q 2566 713 2694 1069 
z
M 847 1978 
L 2700 1978 
Q 2663 2397 2488 2606 
Q 2219 2931 1791 2931 
Q 1403 2931 1139 2672 
Q 875 2413 847 1978 
z
" transform="scale(0.015625)"/>
       <path id="ArialMT-61" d="M 2588 409 
Q 2275 144 1986 34 
Q 1697 -75 1366 -75 
Q 819 -75 525 192 
Q 231 459 231 875 
Q 231 1119 342 1320 
Q 453 1522 633 1644 
Q 813 1766 1038 1828 
Q 1203 1872 1538 1913 
Q 2219 1994 2541 2106 
Q 2544 2222 2544 2253 
Q 2544 2597 2384 2738 
Q 2169 2928 1744 2928 
Q 1347 2928 1158 2789 
Q 969 2650 878 2297 
L 328 2372 
Q 403 2725 575 2942 
Q 747 3159 1072 3276 
Q 1397 3394 1825 3394 
Q 2250 3394 2515 3294 
Q 2781 3194 2906 3042 
Q 3031 2891 3081 2659 
Q 3109 2516 3109 2141 
L 3109 1391 
Q 3109 606 3145 398 
Q 3181 191 3288 0 
L 2700 0 
Q 2613 175 2588 409 
z
M 2541 1666 
Q 2234 1541 1622 1453 
Q 1275 1403 1131 1340 
Q 988 1278 909 1158 
Q 831 1038 831 891 
Q 831 666 1001 516 
Q 1172 366 1500 366 
Q 1825 366 2078 508 
Q 2331 650 2450 897 
Q 2541 1088 2541 1459 
L 2541 1666 
z
" transform="scale(0.015625)"/>
       <path id="ArialMT-67" d="M 319 -275 
L 866 -356 
Q 900 -609 1056 -725 
Q 1266 -881 1628 -881 
Q 2019 -881 2231 -725 
Q 2444 -569 2519 -288 
Q 2563 -116 2559 434 
Q 2191 0 1641 0 
Q 956 0 581 494 
Q 206 988 206 1678 
Q 206 2153 378 2554 
Q 550 2956 876 3175 
Q 1203 3394 1644 3394 
Q 2231 3394 2613 2919 
L 2613 3319 
L 3131 3319 
L 3131 450 
Q 3131 -325 2973 -648 
Q 2816 -972 2473 -1159 
Q 2131 -1347 1631 -1347 
Q 1038 -1347 672 -1080 
Q 306 -813 319 -275 
z
M 784 1719 
Q 784 1066 1043 766 
Q 1303 466 1694 466 
Q 2081 466 2343 764 
Q 2606 1063 2606 1700 
Q 2606 2309 2336 2618 
Q 2066 2928 1684 2928 
Q 1309 2928 1046 2623 
Q 784 2319 784 1719 
z
" transform="scale(0.015625)"/>
       <path id="ArialMT-20" transform="scale(0.015625)"/>
       <path id="ArialMT-43" d="M 3763 1606 
L 4369 1453 
Q 4178 706 3683 314 
Q 3188 -78 2472 -78 
Q 1731 -78 1267 223 
Q 803 525 561 1097 
Q 319 1669 319 2325 
Q 319 3041 592 3573 
Q 866 4106 1370 4382 
Q 1875 4659 2481 4659 
Q 3169 4659 3637 4309 
Q 4106 3959 4291 3325 
L 3694 3184 
Q 3534 3684 3231 3912 
Q 2928 4141 2469 4141 
Q 1941 4141 1586 3887 
Q 1231 3634 1087 3207 
Q 944 2781 944 2328 
Q 944 1744 1114 1308 
Q 1284 872 1643 656 
Q 2003 441 2422 441 
Q 2931 441 3284 734 
Q 3638 1028 3763 1606 
z
" transform="scale(0.015625)"/>
       <path id="ArialMT-6e" d="M 422 0 
L 422 3319 
L 928 3319 
L 928 2847 
Q 1294 3394 1984 3394 
Q 2284 3394 2536 3286 
Q 2788 3178 2913 3003 
Q 3038 2828 3088 2588 
Q 3119 2431 3119 2041 
L 3119 0 
L 2556 0 
L 2556 2019 
Q 2556 2363 2490 2533 
Q 2425 2703 2258 2804 
Q 2091 2906 1866 2906 
Q 1506 2906 1245 2678 
Q 984 2450 984 1813 
L 984 0 
L 422 0 
z
" transform="scale(0.015625)"/>
       <path id="ArialMT-74" d="M 1650 503 
L 1731 6 
Q 1494 -44 1306 -44 
Q 1000 -44 831 53 
Q 663 150 594 308 
Q 525 466 525 972 
L 525 2881 
L 113 2881 
L 113 3319 
L 525 3319 
L 525 4141 
L 1084 4478 
L 1084 3319 
L 1650 3319 
L 1650 2881 
L 1084 2881 
L 1084 941 
Q 1084 700 1114 631 
Q 1144 563 1211 522 
Q 1278 481 1403 481 
Q 1497 481 1650 503 
z
" transform="scale(0.015625)"/>
      </defs>
      <use xlink:href="#ArialMT-41"/>
      <use xlink:href="#ArialMT-76" transform="translate(64.949219 0)"/>
      <use xlink:href="#ArialMT-65" transform="translate(114.949219 0)"/>
      <use xlink:href="#ArialMT-72" transform="translate(170.564453 0)"/>
      <use xlink:href="#ArialMT-61" transform="translate(203.865234 0)"/>
      <use xlink:href="#ArialMT-67" transform="translate(259.480469 0)"/>
      <use xlink:href="#ArialMT-65" transform="translate(315.095703 0)"/>
      <use xlink:href="#ArialMT-20" transform="translate(370.710938 0)"/>
      <use xlink:href="#ArialMT-43" transform="translate(398.494141 0)"/>
      <use xlink:href="#ArialMT-6f" transform="translate(470.710938 0)"/>
      <use xlink:href="#ArialMT-75" transform="translate(526.326172 0)"/>
      <use xlink:href="#ArialMT-6e" transform="translate(581.941406 0)"/>
      <use xlink:href="#ArialMT-74" transform="translate(637.556641 0)"/>
     </g>
    </g>
   </g>
   <g id="FillBetweenPolyCollection_1">
    <defs>
     <path id="m0a1872e367" d="M 90.724602 -76.310568 
L 90.724602 -72.440805 
L 116.057083 -69.755735 
L 141.389563 -68.612232 
L 166.722043 -67.227682 
L 192.054523 -66.044378 
L 217.387003 -68.207703 
L 242.719484 -75.753185 
L 268.051964 -93.705898 
L 293.384444 -128.085882 
L 318.716924 -104.85749 
L 344.049405 -93.212263 
L 369.381885 -96.923075 
L 394.714365 -104.693787 
L 420.046845 -106.448312 
L 445.379326 -103.121924 
L 470.711806 -105.709409 
L 496.044286 -114.61924 
L 521.376766 -135.593799 
L 546.709247 -129.187217 
L 572.041727 -112.701191 
L 597.374207 -99.120791 
L 622.706687 -89.612066 
L 648.039167 -83.675926 
L 673.371648 -77.104127 
L 673.371648 -82.25636 
L 673.371648 -82.25636 
L 648.039167 -90.261118 
L 622.706687 -98.775243 
L 597.374207 -110.673685 
L 572.041727 -129.858225 
L 546.709247 -153.914386 
L 521.376766 -161.755923 
L 496.044286 -130.872302 
L 470.711806 -121.537195 
L 445.379326 -118.969955 
L 420.046845 -122.127695 
L 394.714365 -118.894896 
L 369.381885 -108.819235 
L 344.049405 -101.693508 
L 318.716924 -119.983967 
L 293.384444 -161.853177 
L 268.051964 -109.895322 
L 242.719484 -82.303035 
L 217.387003 -69.9412 
L 192.054523 -66.459698 
L 166.722043 -69.354059 
L 141.389563 -71.869431 
L 116.057083 -73.783815 
L 90.724602 -76.310568 
z
" style="stroke: #edd1cb; stroke-opacity: 0.2; stroke-width: 1.5"/>
    </defs>
    <g clip-path="url(#pe6b572b3de)">
     <use xlink:href="#m0a1872e367" x="0" y="360" style="fill: #edd1cb; fill-opacity: 0.2; stroke: #edd1cb; stroke-opacity: 0.2; stroke-width: 1.5"/>
    </g>
   </g>
   <g id="FillBetweenPolyCollection_2">
    <defs>
     <path id="mb473c31ccc" d="M 90.724602 -78.272137 
L 90.724602 -74.485062 
L 116.057083 -69.878182 
L 141.389563 -68.42882 
L 166.722043 -66.85213 
L 192.054523 -65.844545 
L 217.387003 -68.263084 
L 242.719484 -77.653445 
L 268.051964 -104.137019 
L 293.384444 -143.994617 
L 318.716924 -114.756146 
L 344.049405 -97.196865 
L 369.381885 -103.323432 
L 394.714365 -114.205866 
L 420.046845 -115.504739 
L 445.379326 -110.337078 
L 470.711806 -113.295789 
L 496.044286 -124.334541 
L 521.376766 -154.17912 
L 546.709247 -143.543494 
L 572.041727 -119.473184 
L 597.374207 -104.629637 
L 622.706687 -96.858231 
L 648.039167 -90.358868 
L 673.371648 -81.086609 
L 673.371648 -85.32686 
L 673.371648 -85.32686 
L 648.039167 -97.640655 
L 622.706687 -108.305444 
L 597.374207 -118.916405 
L 572.041727 -138.809958 
L 546.709247 -171.373436 
L 521.376766 -183.411591 
L 496.044286 -142.56859 
L 470.711806 -130.081812 
L 445.379326 -126.228856 
L 420.046845 -130.639091 
L 394.714365 -128.790438 
L 369.381885 -114.857136 
L 344.049405 -107.158056 
L 318.716924 -130.082312 
L 293.384444 -181.134647 
L 268.051964 -124.001574 
L 242.719484 -84.513107 
L 217.387003 -70.06271 
L 192.054523 -66.258283 
L 166.722043 -67.992391 
L 141.389563 -71.22313 
L 116.057083 -73.304802 
L 90.724602 -78.272137 
z
" style="stroke: #e6bdbc; stroke-opacity: 0.2; stroke-width: 1.5"/>
    </defs>
    <g clip-path="url(#pe6b572b3de)">
     <use xlink:href="#mb473c31ccc" x="0" y="360" style="fill: #e6bdbc; fill-opacity: 0.2; stroke: #e6bdbc; stroke-opacity: 0.2; stroke-width: 1.5"/>
    </g>
   </g>
   <g id="FillBetweenPolyCollection_3">
    <defs>
     <path id="mf2c631b9a3" d="M 90.724602 -81.108972 
L 90.724602 -75.580513 
L 116.057083 -72.118102 
L 141.389563 -69.143034 
L 166.722043 -67.260804 
L 192.054523 -66.303571 
L 217.387003 -69.426592 
L 242.719484 -82.59144 
L 268.051964 -114.816116 
L 293.384444 -164.016549 
L 318.716924 -129.969584 
L 344.049405 -109.881042 
L 369.381885 -118.985441 
L 394.714365 -132.317233 
L 420.046845 -134.027525 
L 445.379326 -129.216093 
L 470.711806 -132.421263 
L 496.044286 -147.112647 
L 521.376766 -195.199851 
L 546.709247 -183.314829 
L 572.041727 -147.415392 
L 597.374207 -120.932751 
L 622.706687 -106.725206 
L 648.039167 -96.588932 
L 673.371648 -84.098881 
L 673.371648 -91.719127 
L 673.371648 -91.719127 
L 648.039167 -107.443305 
L 622.706687 -122.685329 
L 597.374207 -140.863945 
L 572.041727 -177.329496 
L 546.709247 -227.254156 
L 521.376766 -234.683348 
L 496.044286 -174.909531 
L 470.711806 -159.640082 
L 445.379326 -155.961491 
L 420.046845 -159.98925 
L 394.714365 -156.056941 
L 369.381885 -138.429885 
L 344.049405 -125.001111 
L 318.716924 -147.129654 
L 293.384444 -203.00778 
L 268.051964 -137.527626 
L 242.719484 -90.167102 
L 217.387003 -71.478866 
L 192.054523 -67.139662 
L 166.722043 -69.384004 
L 141.389563 -72.708133 
L 116.057083 -77.278702 
L 90.724602 -81.108972 
z
" style="stroke: #dda9af; stroke-opacity: 0.2; stroke-width: 1.5"/>
    </defs>
    <g clip-path="url(#pe6b572b3de)">
     <use xlink:href="#mf2c631b9a3" x="0" y="360" style="fill: #dda9af; fill-opacity: 0.2; stroke: #dda9af; stroke-opacity: 0.2; stroke-width: 1.5"/>
    </g>
   </g>
   <g id="FillBetweenPolyCollection_4">
    <defs>
     <path id="m463659d0bf" d="M 90.724602 -84.758566 
L 90.724602 -78.976324 
L 116.057083 -73.131229 
L 141.389563 -70.939636 
L 166.722043 -67.964003 
L 192.054523 -66.692038 
L 217.387003 -70.142347 
L 242.719484 -86.26496 
L 268.051964 -126.11625 
L 293.384444 -179.791695 
L 318.716924 -139.167656 
L 344.049405 -121.348509 
L 369.381885 -133.23232 
L 394.714365 -147.556918 
L 420.046845 -148.020156 
L 445.379326 -146.238922 
L 470.711806 -149.98298 
L 496.044286 -171.545711 
L 521.376766 -226.241989 
L 546.709247 -212.260783 
L 572.041727 -171.807569 
L 597.374207 -135.248181 
L 622.706687 -118.612777 
L 648.039167 -104.888995 
L 673.371648 -91.298042 
L 673.371648 -98.659822 
L 673.371648 -98.659822 
L 648.039167 -115.446895 
L 622.706687 -132.754675 
L 597.374207 -155.307051 
L 572.041727 -199.445588 
L 546.709247 -250.314374 
L 521.376766 -265.444968 
L 496.044286 -202.243064 
L 470.711806 -181.067895 
L 445.379326 -179.274154 
L 420.046845 -177.960116 
L 394.714365 -177.211115 
L 369.381885 -158.389657 
L 344.049405 -141.209639 
L 318.716924 -157.212564 
L 293.384444 -218.83509 
L 268.051964 -151.631861 
L 242.719484 -93.631331 
L 217.387003 -71.852496 
L 192.054523 -67.246204 
L 166.722043 -69.982391 
L 141.389563 -75.025186 
L 116.057083 -77.659753 
L 90.724602 -84.758566 
z
" style="stroke: #d194a4; stroke-opacity: 0.2; stroke-width: 1.5"/>
    </defs>
    <g clip-path="url(#pe6b572b3de)">
     <use xlink:href="#m463659d0bf" x="0" y="360" style="fill: #d194a4; fill-opacity: 0.2; stroke: #d194a4; stroke-opacity: 0.2; stroke-width: 1.5"/>
    </g>
   </g>
   <g id="FillBetweenPolyCollection_5">
    <defs>
     <path id="m99294ee9d8" d="M 90.724602 -94.349603 
L 90.724602 -86.618433 
L 116.057083 -77.71949 
L 141.389563 -73.06755 
L 166.722043 -68.90711 
L 192.054523 -67.270972 
L 217.387003 -71.781345 
L 242.719484 -92.09051 
L 268.051964 -138.880784 
L 293.384444 -193.939079 
L 318.716924 -149.139167 
L 344.049405 -133.775647 
L 369.381885 -149.844396 
L 394.714365 -168.960202 
L 420.046845 -171.231552 
L 445.379326 -158.329823 
L 470.711806 -168.706332 
L 496.044286 -197.567264 
L 521.376766 -258.305697 
L 546.709247 -245.312654 
L 572.041727 -199.916292 
L 597.374207 -162.769107 
L 622.706687 -137.396171 
L 648.039167 -120.640731 
L 673.371648 -101.037715 
L 673.371648 -109.583507 
L 673.371648 -109.583507 
L 648.039167 -131.855609 
L 622.706687 -149.986882 
L 597.374207 -179.039635 
L 572.041727 -220.310489 
L 546.709247 -276.431455 
L 521.376766 -289.735821 
L 496.044286 -219.691671 
L 470.711806 -192.489245 
L 445.379326 -185.967214 
L 420.046845 -195.865552 
L 394.714365 -194.191264 
L 369.381885 -174.74391 
L 344.049405 -152.624713 
L 318.716924 -163.041515 
L 293.384444 -234.465636 
L 268.051964 -166.957124 
L 242.719484 -101.768377 
L 217.387003 -73.669209 
L 192.054523 -68.171852 
L 166.722043 -71.334123 
L 141.389563 -77.860903 
L 116.057083 -84.002818 
L 90.724602 -94.349603 
z
" style="stroke: #c3819c; stroke-opacity: 0.2; stroke-width: 1.5"/>
    </defs>
    <g clip-path="url(#pe6b572b3de)">
     <use xlink:href="#m99294ee9d8" x="0" y="360" style="fill: #c3819c; fill-opacity: 0.2; stroke: #c3819c; stroke-opacity: 0.2; stroke-width: 1.5"/>
    </g>
   </g>
   <g id="FillBetweenPolyCollection_6">
    <defs>
     <path id="m0860f89948" d="M 90.724602 -95.974593 
L 90.724602 -87.936638 
L 116.057083 -78.323896 
L 141.389563 -72.935073 
L 166.722043 -68.969845 
L 192.054523 -68.084215 
L 217.387003 -73.593517 
L 242.719484 -99.513155 
L 268.051964 -157.911854 
L 293.384444 -209.794825 
L 318.716924 -159.95827 
L 344.049405 -135.80546 
L 369.381885 -149.299997 
L 394.714365 -168.639945 
L 420.046845 -168.039604 
L 445.379326 -160.33475 
L 470.711806 -163.536253 
L 496.044286 -201.023542 
L 521.376766 -274.611571 
L 546.709247 -257.595253 
L 572.041727 -214.582198 
L 597.374207 -182.952669 
L 622.706687 -154.8055 
L 648.039167 -131.460902 
L 673.371648 -107.948012 
L 673.371648 -116.808587 
L 673.371648 -116.808587 
L 648.039167 -141.323311 
L 622.706687 -166.672371 
L 597.374207 -199.453029 
L 572.041727 -236.816196 
L 546.709247 -290.141284 
L 521.376766 -305.250029 
L 496.044286 -220.550147 
L 470.711806 -189.796433 
L 445.379326 -189.181684 
L 420.046845 -196.405569 
L 394.714365 -195.696147 
L 369.381885 -175.634111 
L 344.049405 -157.803881 
L 318.716924 -170.737657 
L 293.384444 -248.916111 
L 268.051964 -190.047841 
L 242.719484 -109.753627 
L 217.387003 -75.803951 
L 192.054523 -68.81881 
L 166.722043 -71.637026 
L 141.389563 -78.166053 
L 116.057083 -85.081534 
L 90.724602 -95.974593 
z
" style="stroke: #b37093; stroke-opacity: 0.2; stroke-width: 1.5"/>
    </defs>
    <g clip-path="url(#pe6b572b3de)">
     <use xlink:href="#m0860f89948" x="0" y="360" style="fill: #b37093; fill-opacity: 0.2; stroke: #b37093; stroke-opacity: 0.2; stroke-width: 1.5"/>
    </g>
   </g>
   <g id="FillBetweenPolyCollection_7">
    <defs>
     <path id="m5a80c0b744" d="M 90.724602 -101.641212 
L 90.724602 -92.28662 
L 116.057083 -79.542698 
L 141.389563 -75.157805 
L 166.722043 -70.041023 
L 192.054523 -67.804146 
L 217.387003 -73.558744 
L 242.719484 -96.984829 
L 268.051964 -148.569069 
L 293.384444 -197.956573 
L 318.716924 -154.680648 
L 344.049405 -137.566695 
L 369.381885 -149.699612 
L 394.714365 -164.179106 
L 420.046845 -161.623243 
L 445.379326 -157.958747 
L 470.711806 -158.460053 
L 496.044286 -189.347658 
L 521.376766 -251.77386 
L 546.709247 -245.77198 
L 572.041727 -210.650241 
L 597.374207 -180.265015 
L 622.706687 -154.940647 
L 648.039167 -133.774881 
L 673.371648 -111.138137 
L 673.371648 -119.124097 
L 673.371648 -119.124097 
L 648.039167 -146.836562 
L 622.706687 -170.805013 
L 597.374207 -199.316472 
L 572.041727 -234.654698 
L 546.709247 -280.763337 
L 521.376766 -288.719268 
L 496.044286 -209.64763 
L 470.711806 -181.153637 
L 445.379326 -180.738896 
L 420.046845 -184.931203 
L 394.714365 -184.649295 
L 369.381885 -169.551289 
L 344.049405 -154.914601 
L 318.716924 -167.045527 
L 293.384444 -242.127555 
L 268.051964 -182.038583 
L 242.719484 -107.810552 
L 217.387003 -76.157199 
L 192.054523 -68.551814 
L 166.722043 -73.013313 
L 141.389563 -81.232154 
L 116.057083 -87.746371 
L 90.724602 -101.641212 
z
" style="stroke: #9f5f8a; stroke-opacity: 0.2; stroke-width: 1.5"/>
    </defs>
    <g clip-path="url(#pe6b572b3de)">
     <use xlink:href="#m5a80c0b744" x="0" y="360" style="fill: #9f5f8a; fill-opacity: 0.2; stroke: #9f5f8a; stroke-opacity: 0.2; stroke-width: 1.5"/>
    </g>
   </g>
   <g id="FillBetweenPolyCollection_8">
    <defs>
     <path id="m330095d082" d="M 90.724602 -95.306058 
L 90.724602 -87.587674 
L 116.057083 -77.122814 
L 141.389563 -72.731908 
L 166.722043 -68.901135 
L 192.054523 -67.842222 
L 217.387003 -73.946387 
L 242.719484 -98.77462 
L 268.051964 -156.679283 
L 293.384444 -207.900107 
L 318.716924 -156.78791 
L 344.049405 -137.380084 
L 369.381885 -148.152336 
L 394.714365 -168.689019 
L 420.046845 -163.912825 
L 445.379326 -159.240202 
L 470.711806 -162.314836 
L 496.044286 -195.366391 
L 521.376766 -269.028462 
L 546.709247 -265.756125 
L 572.041727 -214.923331 
L 597.374207 -173.382808 
L 622.706687 -148.648008 
L 648.039167 -128.728925 
L 673.371648 -107.195935 
L 673.371648 -115.618184 
L 673.371648 -115.618184 
L 648.039167 -139.630432 
L 622.706687 -162.826694 
L 597.374207 -193.486577 
L 572.041727 -242.048003 
L 546.709247 -303.202549 
L 521.376766 -309.44869 
L 496.044286 -217.719848 
L 470.711806 -186.11491 
L 445.379326 -182.418086 
L 420.046845 -186.753645 
L 394.714365 -191.678147 
L 369.381885 -167.085055 
L 344.049405 -153.757706 
L 318.716924 -172.637261 
L 293.384444 -252.065574 
L 268.051964 -187.559994 
L 242.719484 -109.215033 
L 217.387003 -76.064835 
L 192.054523 -68.56493 
L 166.722043 -71.810498 
L 141.389563 -78.443807 
L 116.057083 -83.570502 
L 90.724602 -95.306058 
z
" style="stroke: #8a5081; stroke-opacity: 0.2; stroke-width: 1.5"/>
    </defs>
    <g clip-path="url(#pe6b572b3de)">
     <use xlink:href="#m330095d082" x="0" y="360" style="fill: #8a5081; fill-opacity: 0.2; stroke: #8a5081; stroke-opacity: 0.2; stroke-width: 1.5"/>
    </g>
   </g>
   <g id="FillBetweenPolyCollection_9">
    <defs>
     <path id="mb362cfd612" d="M 90.724602 -97.481145 
L 90.724602 -87.721801 
L 116.057083 -78.219884 
L 141.389563 -74.310292 
L 166.722043 -70.362865 
L 192.054523 -67.805576 
L 217.387003 -73.929151 
L 242.719484 -97.081551 
L 268.051964 -150.1242 
L 293.384444 -197.327612 
L 318.716924 -152.068659 
L 344.049405 -138.624151 
L 369.381885 -155.830133 
L 394.714365 -173.60131 
L 420.046845 -173.500936 
L 445.379326 -167.06215 
L 470.711806 -174.086871 
L 496.044286 -203.729985 
L 521.376766 -268.585994 
L 546.709247 -252.473513 
L 572.041727 -207.124161 
L 597.374207 -162.205275 
L 622.706687 -138.899782 
L 648.039167 -121.316212 
L 673.371648 -102.292583 
L 673.371648 -111.830916 
L 673.371648 -111.830916 
L 648.039167 -132.684699 
L 622.706687 -152.410626 
L 597.374207 -181.237929 
L 572.041727 -233.881933 
L 546.709247 -296.542707 
L 521.376766 -314.015455 
L 496.044286 -234.052916 
L 470.711806 -205.519926 
L 445.379326 -200.884855 
L 420.046845 -207.99111 
L 394.714365 -210.051933 
L 369.381885 -186.282093 
L 344.049405 -163.74175 
L 318.716924 -169.339869 
L 293.384444 -248.506385 
L 268.051964 -185.683177 
L 242.719484 -109.35055 
L 217.387003 -76.912017 
L 192.054523 -68.628828 
L 166.722043 -73.699292 
L 141.389563 -80.957226 
L 116.057083 -85.83846 
L 90.724602 -97.481145 
z
" style="stroke: #744375; stroke-opacity: 0.2; stroke-width: 1.5"/>
    </defs>
    <g clip-path="url(#pe6b572b3de)">
     <use xlink:href="#mb362cfd612" x="0" y="360" style="fill: #744375; fill-opacity: 0.2; stroke: #744375; stroke-opacity: 0.2; stroke-width: 1.5"/>
    </g>
   </g>
   <g id="FillBetweenPolyCollection_10">
    <defs>
     <path id="m6f4c8f25ad" d="M 90.724602 -93.972918 
L 90.724602 -85.071044 
L 116.057083 -76.303127 
L 141.389563 -72.028387 
L 166.722043 -68.830134 
L 192.054523 -67.81175 
L 217.387003 -72.852432 
L 242.719484 -93.991029 
L 268.051964 -143.202702 
L 293.384444 -198.123159 
L 318.716924 -153.631731 
L 344.049405 -135.660599 
L 369.381885 -149.519584 
L 394.714365 -169.811181 
L 420.046845 -165.03406 
L 445.379326 -161.387195 
L 470.711806 -167.41708 
L 496.044286 -200.495489 
L 521.376766 -259.650403 
L 546.709247 -230.944992 
L 572.041727 -176.565775 
L 597.374207 -146.922292 
L 622.706687 -126.628697 
L 648.039167 -114.725895 
L 673.371648 -98.419884 
L 673.371648 -107.02355 
L 673.371648 -107.02355 
L 648.039167 -124.986448 
L 622.706687 -139.798612 
L 597.374207 -167.367561 
L 572.041727 -205.695218 
L 546.709247 -272.941315 
L 521.376766 -306.287878 
L 496.044286 -228.421198 
L 470.711806 -197.142785 
L 445.379326 -192.295145 
L 420.046845 -195.862123 
L 394.714365 -199.930674 
L 369.381885 -175.209819 
L 344.049405 -156.655127 
L 318.716924 -171.9985 
L 293.384444 -248.080035 
L 268.051964 -176.028797 
L 242.719484 -104.572834 
L 217.387003 -75.841947 
L 192.054523 -68.552836 
L 166.722043 -71.677118 
L 141.389563 -77.640913 
L 116.057083 -83.789502 
L 90.724602 -93.972918 
z
" style="stroke: #5b3665; stroke-opacity: 0.2; stroke-width: 1.5"/>
    </defs>
    <g clip-path="url(#pe6b572b3de)">
     <use xlink:href="#m6f4c8f25ad" x="0" y="360" style="fill: #5b3665; fill-opacity: 0.2; stroke: #5b3665; stroke-opacity: 0.2; stroke-width: 1.5"/>
    </g>
   </g>
   <g id="FillBetweenPolyCollection_11">
    <defs>
     <path id="mbc9c51df19" d="M 90.724602 -87.452344 
L 90.724602 -79.463784 
L 116.057083 -73.864874 
L 141.389563 -70.362865 
L 166.722043 -67.630061 
L 192.054523 -67.349462 
L 217.387003 -71.833023 
L 242.719484 -88.943698 
L 268.051964 -133.927969 
L 293.384444 -182.870186 
L 318.716924 -141.346426 
L 344.049405 -122.735531 
L 369.381885 -131.872845 
L 394.714365 -150.172803 
L 420.046845 -151.337389 
L 445.379326 -147.261022 
L 470.711806 -152.428991 
L 496.044286 -171.951005 
L 521.376766 -204.806388 
L 546.709247 -186.301566 
L 572.041727 -152.415059 
L 597.374207 -127.951787 
L 622.706687 -113.843927 
L 648.039167 -101.742587 
L 673.371648 -90.647356 
L 673.371648 -97.50711 
L 673.371648 -97.50711 
L 648.039167 -109.345326 
L 622.706687 -123.22315 
L 597.374207 -140.444014 
L 572.041727 -171.916966 
L 546.709247 -217.386956 
L 521.376766 -237.399914 
L 496.044286 -193.574846 
L 470.711806 -176.072493 
L 445.379326 -172.299146 
L 420.046845 -177.579837 
L 394.714365 -171.814218 
L 369.381885 -151.249206 
L 344.049405 -138.441135 
L 318.716924 -158.263953 
L 293.384444 -227.820735 
L 268.051964 -161.531 
L 242.719484 -97.943117 
L 217.387003 -74.23328 
L 192.054523 -67.989224 
L 166.722043 -69.700695 
L 141.389563 -74.356982 
L 116.057083 -80.021855 
L 90.724602 -87.452344 
z
" style="stroke: #432a53; stroke-opacity: 0.2; stroke-width: 1.5"/>
    </defs>
    <g clip-path="url(#pe6b572b3de)">
     <use xlink:href="#mbc9c51df19" x="0" y="360" style="fill: #432a53; fill-opacity: 0.2; stroke: #432a53; stroke-opacity: 0.2; stroke-width: 1.5"/>
    </g>
   </g>
   <g id="FillBetweenPolyCollection_12">
    <defs>
     <path id="m35e02c8daa" d="M 90.724602 -82.727338 
L 90.724602 -77.658052 
L 116.057083 -72.970108 
L 141.389563 -70.286008 
L 166.722043 -67.564774 
L 192.054523 -66.8854 
L 217.387003 -70.316343 
L 242.719484 -82.536897 
L 268.051964 -114.888278 
L 293.384444 -158.29244 
L 318.716924 -128.521129 
L 344.049405 -110.653991 
L 369.381885 -121.395141 
L 394.714365 -133.886724 
L 420.046845 -133.952758 
L 445.379326 -131.496483 
L 470.711806 -134.695984 
L 496.044286 -147.416771 
L 521.376766 -168.642902 
L 546.709247 -156.847202 
L 572.041727 -130.473954 
L 597.374207 -111.504771 
L 622.706687 -101.742944 
L 648.039167 -92.788232 
L 673.371648 -84.993785 
L 673.371648 -91.288758 
L 673.371648 -91.288758 
L 648.039167 -101.081993 
L 622.706687 -114.301327 
L 597.374207 -126.204581 
L 572.041727 -152.073154 
L 546.709247 -189.864438 
L 521.376766 -203.228404 
L 496.044286 -169.377395 
L 470.711806 -155.645264 
L 445.379326 -151.445143 
L 420.046845 -154.560071 
L 394.714365 -155.429083 
L 369.381885 -136.58063 
L 344.049405 -121.759476 
L 318.716924 -146.801476 
L 293.384444 -206.034459 
L 268.051964 -140.711653 
L 242.719484 -90.963798 
L 217.387003 -72.602861 
L 192.054523 -67.490765 
L 166.722043 -69.502743 
L 141.389563 -74.565645 
L 116.057083 -77.967538 
L 90.724602 -82.727338 
z
" style="stroke: #2d1e3e; stroke-opacity: 0.2; stroke-width: 1.5"/>
    </defs>
    <g clip-path="url(#pe6b572b3de)">
     <use xlink:href="#m35e02c8daa" x="0" y="360" style="fill: #2d1e3e; fill-opacity: 0.2; stroke: #2d1e3e; stroke-opacity: 0.2; stroke-width: 1.5"/>
    </g>
   </g>
   <g id="line2d_13">
    <path d="M 90.724602 285.640066 
L 116.057083 288.382131 
L 141.389563 289.900017 
L 166.722043 291.8022 
L 192.054523 293.758605 
L 217.387003 290.972211 
L 242.719484 281.065271 
L 268.051964 258.118094 
L 293.384444 216.106873 
L 318.716924 247.206829 
L 344.049405 262.778971 
L 369.381885 257.605144 
L 394.714365 248.486971 
L 420.046845 245.964267 
L 445.379326 249.315415 
L 470.711806 246.11999 
L 496.044286 237.419927 
L 521.376766 211.086053 
L 546.709247 218.388934 
L 572.041727 238.975443 
L 597.374207 255.320073 
L 622.706687 265.691188 
L 648.039167 273.03506 
L 673.371648 280.38516 
" clip-path="url(#pe6b572b3de)" style="fill: none; stroke: #edd1cb; stroke-width: 2.25; stroke-linecap: round"/>
   </g>
   <g id="line2d_14">
    <path d="M 90.724602 283.804936 
L 116.057083 288.486621 
L 141.389563 290.268576 
L 166.722043 292.603816 
L 192.054523 293.961251 
L 217.387003 290.847946 
L 242.719484 278.966719 
L 268.051964 246.309917 
L 293.384444 198.254621 
L 318.716924 237.317464 
L 344.049405 257.948777 
L 369.381885 251.076117 
L 394.714365 238.570674 
L 420.046845 237.017493 
L 445.379326 242.150324 
L 470.711806 238.47735 
L 496.044286 226.651841 
L 521.376766 191.361963 
L 546.709247 202.714185 
L 572.041727 231.578025 
L 597.374207 248.72968 
L 622.706687 257.388832 
L 648.039167 266.127976 
L 673.371648 276.760269 
" clip-path="url(#pe6b572b3de)" style="fill: none; stroke: #e6bdbc; stroke-width: 2.25; stroke-linecap: round"/>
   </g>
   <g id="line2d_15">
    <path d="M 90.724602 281.661079 
L 116.057083 285.552634 
L 141.389563 289.1925 
L 166.722043 291.814462 
L 192.054523 293.323374 
L 217.387003 289.553683 
L 242.719484 273.700246 
L 268.051964 234.312811 
L 293.384444 175.626944 
L 318.716924 221.007985 
L 344.049405 243.156139 
L 369.381885 232.05142 
L 394.714365 215.602708 
L 420.046845 213.549683 
L 445.379326 217.790558 
L 470.711806 213.99093 
L 496.044286 198.90273 
L 521.376766 145.842763 
L 546.709247 153.785211 
L 572.041727 198.148933 
L 597.374207 229.189442 
L 622.706687 245.448173 
L 648.039167 258.244339 
L 673.371648 272.376504 
" clip-path="url(#pe6b572b3de)" style="fill: none; stroke: #dda9af; stroke-width: 2.25; stroke-linecap: round"/>
   </g>
   <g id="line2d_16">
    <path d="M 90.724602 278.059808 
L 116.057083 284.690159 
L 141.389563 287.248575 
L 166.722043 291.046456 
L 192.054523 293.037319 
L 217.387003 289.028068 
L 242.719484 269.934937 
L 268.051964 221.79365 
L 293.384444 161.943176 
L 318.716924 212.098266 
L 344.049405 228.531657 
L 369.381885 214.821333 
L 394.714365 198.57159 
L 420.046845 196.855425 
L 445.379326 197.982648 
L 470.711806 194.942945 
L 496.044286 173.468714 
L 521.376766 113.206614 
L 546.709247 128.316468 
L 572.041727 174.08932 
L 597.374207 214.37171 
L 622.706687 234.389417 
L 648.039167 249.765245 
L 673.371648 265.115742 
" clip-path="url(#pe6b572b3de)" style="fill: none; stroke: #d194a4; stroke-width: 2.25; stroke-linecap: round"/>
   </g>
   <g id="line2d_17">
    <path d="M 90.724602 269.563554 
L 116.057083 279.393559 
L 141.389563 284.645626 
L 166.722043 289.952848 
L 192.054523 292.300038 
L 217.387003 287.293108 
L 242.719484 263.067416 
L 268.051964 207.507049 
L 293.384444 146.670102 
L 318.716924 203.842246 
L 344.049405 216.613899 
L 369.381885 198.148933 
L 394.714365 179.524627 
L 420.046845 176.491053 
L 445.379326 188.380212 
L 470.711806 179.910718 
L 496.044286 151.867012 
L 521.376766 86.176347 
L 546.709247 99.407632 
L 572.041727 149.746575 
L 597.374207 189.330119 
L 622.706687 216.411661 
L 648.039167 233.847051 
L 673.371648 254.757262 
" clip-path="url(#pe6b572b3de)" style="fill: none; stroke: #c3819c; stroke-width: 2.25; stroke-linecap: round"/>
   </g>
   <g id="line2d_18">
    <path d="M 90.724602 268.161777 
L 116.057083 278.465102 
L 141.389563 284.398854 
L 166.722043 289.794326 
L 192.054523 291.542155 
L 217.387003 285.32343 
L 242.719484 255.420358 
L 268.051964 186.412781 
L 293.384444 129.678002 
L 318.716924 195.056934 
L 344.049405 213.48513 
L 369.381885 197.957317 
L 394.714365 178.389233 
L 420.046845 179.731768 
L 445.379326 185.494537 
L 470.711806 184.196331 
L 496.044286 149.670378 
L 521.376766 71.056074 
L 546.709247 86.780201 
L 572.041727 133.933585 
L 597.374207 168.81417 
L 622.706687 199.394843 
L 648.039167 223.433823 
L 673.371648 247.688115 
" clip-path="url(#pe6b572b3de)" style="fill: none; stroke: #b37093; stroke-width: 2.25; stroke-linecap: round"/>
   </g>
   <g id="line2d_19">
    <path d="M 90.724602 263.171599 
L 116.057083 276.531581 
L 141.389563 281.844932 
L 166.722043 288.512666 
L 192.054523 291.834277 
L 217.387003 285.142029 
L 242.719484 257.447643 
L 268.051964 194.606699 
L 293.384444 139.432423 
L 318.716924 199.362362 
L 344.049405 214.021572 
L 369.381885 200.532893 
L 394.714365 185.781756 
L 420.046845 187.093241 
L 445.379326 191.009309 
L 470.711806 190.678374 
L 496.044286 160.557129 
L 521.376766 89.160893 
L 546.709247 96.68048 
L 572.041727 137.710334 
L 597.374207 170.607758 
L 622.706687 196.904861 
L 648.039167 220.027436 
L 673.371648 244.921128 
" clip-path="url(#pe6b572b3de)" style="fill: none; stroke: #9f5f8a; stroke-width: 2.25; stroke-linecap: round"/>
   </g>
   <g id="line2d_20">
    <path d="M 90.724602 268.874156 
L 116.057083 279.799643 
L 141.389563 284.602124 
L 166.722043 289.709821 
L 192.054523 291.827646 
L 217.387003 284.957171 
L 242.719484 255.718722 
L 268.051964 187.038085 
L 293.384444 128.92829 
L 318.716924 195.293083 
L 344.049405 214.671186 
L 369.381885 202.426578 
L 394.714365 180.934166 
L 420.046845 184.623483 
L 445.379326 189.569127 
L 470.711806 186.296545 
L 496.044286 153.533946 
L 521.376766 70.138239 
L 546.709247 76.245473 
L 572.041727 131.701356 
L 597.374207 176.325183 
L 622.706687 204.324082 
L 648.039167 225.950817 
L 673.371648 248.66138 
" clip-path="url(#pe6b572b3de)" style="fill: none; stroke: #8a5081; stroke-width: 2.25; stroke-linecap: round"/>
   </g>
   <g id="line2d_21">
    <path d="M 90.724602 267.572835 
L 116.057083 278.089969 
L 141.389563 282.456321 
L 166.722043 288.026962 
L 192.054523 291.808129 
L 217.387003 284.531841 
L 242.719484 257.231514 
L 268.051964 191.111654 
L 293.384444 137.720548 
L 318.716924 199.584824 
L 344.049405 209.324537 
L 369.381885 189.224505 
L 394.714365 169.498103 
L 420.046845 169.504436 
L 445.379326 176.502084 
L 470.711806 170.644324 
L 496.044286 141.2732 
L 521.376766 68.352006 
L 546.709247 85.722638 
L 572.041727 139.329057 
L 597.374207 188.002292 
L 622.706687 214.314716 
L 648.039167 233.072213 
L 673.371648 253.001261 
" clip-path="url(#pe6b572b3de)" style="fill: none; stroke: #744375; stroke-width: 2.25; stroke-linecap: round"/>
   </g>
   <g id="line2d_22">
    <path d="M 90.724602 270.686765 
L 116.057083 280.035615 
L 141.389563 285.329763 
L 166.722043 289.849496 
L 192.054523 291.846125 
L 217.387003 285.614735 
L 242.719484 260.739837 
L 268.051964 200.813371 
L 293.384444 137.232929 
L 318.716924 197.203724 
L 344.049405 214.612353 
L 369.381885 197.653347 
L 394.714365 175.431856 
L 420.046845 180.722786 
L 445.379326 184.192282 
L 470.711806 178.474153 
L 496.044286 145.205607 
L 521.376766 77.740409 
L 546.709247 108.635745 
L 572.041727 168.975083 
L 597.374207 203.053386 
L 622.706687 226.349466 
L 648.039167 240.021898 
L 673.371648 257.319549 
" clip-path="url(#pe6b572b3de)" style="fill: none; stroke: #5b3665; stroke-width: 2.25; stroke-linecap: round"/>
   </g>
   <g id="line2d_23">
    <path d="M 90.724602 276.970581 
L 116.057083 283.075317 
L 141.389563 287.76292 
L 166.722043 291.413317 
L 192.054523 292.359075 
L 217.387003 286.95727 
L 242.719484 266.584932 
L 268.051964 212.921519 
L 293.384444 154.375584 
L 318.716924 210.28711 
L 344.049405 229.823531 
L 369.381885 218.905933 
L 394.714365 198.742573 
L 420.046845 196.855425 
L 445.379326 200.281423 
L 470.711806 195.854856 
L 496.044286 177.724298 
L 521.376766 138.30949 
L 546.709247 158.669163 
L 572.041727 198.153631 
L 597.374207 225.561614 
L 622.706687 241.570714 
L 648.039167 254.350129 
L 673.371648 266.046651 
" clip-path="url(#pe6b572b3de)" style="fill: none; stroke: #432a53; stroke-width: 2.25; stroke-linecap: round"/>
   </g>
   <g id="line2d_24">
    <path d="M 90.724602 279.761265 
L 116.057083 284.584341 
L 141.389563 287.624044 
L 166.722043 291.497826 
L 192.054523 292.837678 
L 217.387003 288.53718 
L 242.719484 273.13643 
L 268.051964 233.019712 
L 293.384444 178.642133 
L 318.716924 222.386882 
L 344.049405 243.824138 
L 369.381885 231.579531 
L 394.714365 215.921386 
L 420.046845 215.725276 
L 445.379326 219.341051 
L 470.711806 215.565937 
L 496.044286 201.513442 
L 521.376766 174.634138 
L 546.709247 186.590709 
L 572.041727 218.679181 
L 597.374207 240.937647 
L 622.706687 252.397815 
L 648.039167 263.220627 
L 673.371648 272.076211 
" clip-path="url(#pe6b572b3de)" style="fill: none; stroke: #2d1e3e; stroke-width: 2.25; stroke-linecap: round"/>
   </g>
   <g id="line2d_25"/>
   <g id="line2d_26"/>
   <g id="line2d_27"/>
   <g id="line2d_28"/>
   <g id="line2d_29"/>
   <g id="line2d_30"/>
   <g id="line2d_31"/>
   <g id="line2d_32"/>
   <g id="line2d_33"/>
   <g id="line2d_34"/>
   <g id="line2d_35"/>
   <g id="line2d_36"/>
   <g id="patch_3">
    <path d="M 61.59225 306.564 
L 61.59225 33.576 
" style="fill: none; stroke: #ffffff; stroke-width: 1.875; stroke-linejoin: miter; stroke-linecap: square"/>
   </g>
   <g id="patch_4">
    <path d="M 702.504 306.564 
L 702.504 33.576 
" style="fill: none; stroke: #ffffff; stroke-width: 1.875; stroke-linejoin: miter; stroke-linecap: square"/>
   </g>
   <g id="patch_5">
    <path d="M 61.59225 306.564 
L 702.504 306.564 
" style="fill: none; stroke: #ffffff; stroke-width: 1.875; stroke-linejoin: miter; stroke-linecap: square"/>
   </g>
   <g id="patch_6">
    <path d="M 61.59225 33.576 
L 702.504 33.576 
" style="fill: none; stroke: #ffffff; stroke-width: 1.875; stroke-linejoin: miter; stroke-linecap: square"/>
   </g>
   <g id="text_15">
    <!-- Hourly Bike Rentals Across Months -->
    <g style="fill: #262626" transform="translate(272.731094 27.576) scale(0.14 -0.14)">
     <defs>
      <path id="ArialMT-6c" d="M 409 0 
L 409 4581 
L 972 4581 
L 972 0 
L 409 0 
z
" transform="scale(0.015625)"/>
      <path id="ArialMT-79" d="M 397 -1278 
L 334 -750 
Q 519 -800 656 -800 
Q 844 -800 956 -737 
Q 1069 -675 1141 -563 
Q 1194 -478 1313 -144 
Q 1328 -97 1363 -6 
L 103 3319 
L 709 3319 
L 1400 1397 
Q 1534 1031 1641 628 
Q 1738 1016 1872 1384 
L 2581 3319 
L 3144 3319 
L 1881 -56 
Q 1678 -603 1566 -809 
Q 1416 -1088 1222 -1217 
Q 1028 -1347 759 -1347 
Q 597 -1347 397 -1278 
z
" transform="scale(0.015625)"/>
      <path id="ArialMT-42" d="M 469 0 
L 469 4581 
L 2188 4581 
Q 2713 4581 3030 4442 
Q 3347 4303 3526 4014 
Q 3706 3725 3706 3409 
Q 3706 3116 3547 2856 
Q 3388 2597 3066 2438 
Q 3481 2316 3704 2022 
Q 3928 1728 3928 1328 
Q 3928 1006 3792 729 
Q 3656 453 3456 303 
Q 3256 153 2954 76 
Q 2653 0 2216 0 
L 469 0 
z
M 1075 2656 
L 2066 2656 
Q 2469 2656 2644 2709 
Q 2875 2778 2992 2937 
Q 3109 3097 3109 3338 
Q 3109 3566 3000 3739 
Q 2891 3913 2687 3977 
Q 2484 4041 1991 4041 
L 1075 4041 
L 1075 2656 
z
M 1075 541 
L 2216 541 
Q 2509 541 2628 563 
Q 2838 600 2978 687 
Q 3119 775 3209 942 
Q 3300 1109 3300 1328 
Q 3300 1584 3169 1773 
Q 3038 1963 2805 2039 
Q 2572 2116 2134 2116 
L 1075 2116 
L 1075 541 
z
" transform="scale(0.015625)"/>
      <path id="ArialMT-69" d="M 425 3934 
L 425 4581 
L 988 4581 
L 988 3934 
L 425 3934 
z
M 425 0 
L 425 3319 
L 988 3319 
L 988 0 
L 425 0 
z
" transform="scale(0.015625)"/>
      <path id="ArialMT-6b" d="M 425 0 
L 425 4581 
L 988 4581 
L 988 1969 
L 2319 3319 
L 3047 3319 
L 1778 2088 
L 3175 0 
L 2481 0 
L 1384 1697 
L 988 1316 
L 988 0 
L 425 0 
z
" transform="scale(0.015625)"/>
      <path id="ArialMT-52" d="M 503 0 
L 503 4581 
L 2534 4581 
Q 3147 4581 3465 4457 
Q 3784 4334 3975 4021 
Q 4166 3709 4166 3331 
Q 4166 2844 3850 2509 
Q 3534 2175 2875 2084 
Q 3116 1969 3241 1856 
Q 3506 1613 3744 1247 
L 4541 0 
L 3778 0 
L 3172 953 
Q 2906 1366 2734 1584 
Q 2563 1803 2427 1890 
Q 2291 1978 2150 2013 
Q 2047 2034 1813 2034 
L 1109 2034 
L 1109 0 
L 503 0 
z
M 1109 2559 
L 2413 2559 
Q 2828 2559 3062 2645 
Q 3297 2731 3419 2920 
Q 3541 3109 3541 3331 
Q 3541 3656 3305 3865 
Q 3069 4075 2559 4075 
L 1109 4075 
L 1109 2559 
z
" transform="scale(0.015625)"/>
      <path id="ArialMT-73" d="M 197 991 
L 753 1078 
Q 800 744 1014 566 
Q 1228 388 1613 388 
Q 2000 388 2187 545 
Q 2375 703 2375 916 
Q 2375 1106 2209 1216 
Q 2094 1291 1634 1406 
Q 1016 1563 777 1677 
Q 538 1791 414 1992 
Q 291 2194 291 2438 
Q 291 2659 392 2848 
Q 494 3038 669 3163 
Q 800 3259 1026 3326 
Q 1253 3394 1513 3394 
Q 1903 3394 2198 3281 
Q 2494 3169 2634 2976 
Q 2775 2784 2828 2463 
L 2278 2388 
Q 2241 2644 2061 2787 
Q 1881 2931 1553 2931 
Q 1166 2931 1000 2803 
Q 834 2675 834 2503 
Q 834 2394 903 2306 
Q 972 2216 1119 2156 
Q 1203 2125 1616 2013 
Q 2213 1853 2448 1751 
Q 2684 1650 2818 1456 
Q 2953 1263 2953 975 
Q 2953 694 2789 445 
Q 2625 197 2315 61 
Q 2006 -75 1616 -75 
Q 969 -75 630 194 
Q 291 463 197 991 
z
" transform="scale(0.015625)"/>
      <path id="ArialMT-63" d="M 2588 1216 
L 3141 1144 
Q 3050 572 2676 248 
Q 2303 -75 1759 -75 
Q 1078 -75 664 370 
Q 250 816 250 1647 
Q 250 2184 428 2587 
Q 606 2991 970 3192 
Q 1334 3394 1763 3394 
Q 2303 3394 2647 3120 
Q 2991 2847 3088 2344 
L 2541 2259 
Q 2463 2594 2264 2762 
Q 2066 2931 1784 2931 
Q 1359 2931 1093 2626 
Q 828 2322 828 1663 
Q 828 994 1084 691 
Q 1341 388 1753 388 
Q 2084 388 2306 591 
Q 2528 794 2588 1216 
z
" transform="scale(0.015625)"/>
      <path id="ArialMT-4d" d="M 475 0 
L 475 4581 
L 1388 4581 
L 2472 1338 
Q 2622 884 2691 659 
Q 2769 909 2934 1394 
L 4031 4581 
L 4847 4581 
L 4847 0 
L 4263 0 
L 4263 3834 
L 2931 0 
L 2384 0 
L 1059 3900 
L 1059 0 
L 475 0 
z
" transform="scale(0.015625)"/>
      <path id="ArialMT-68" d="M 422 0 
L 422 4581 
L 984 4581 
L 984 2938 
Q 1378 3394 1978 3394 
Q 2347 3394 2619 3248 
Q 2891 3103 3008 2847 
Q 3125 2591 3125 2103 
L 3125 0 
L 2563 0 
L 2563 2103 
Q 2563 2525 2380 2717 
Q 2197 2909 1863 2909 
Q 1613 2909 1392 2779 
Q 1172 2650 1078 2428 
Q 984 2206 984 1816 
L 984 0 
L 422 0 
z
" transform="scale(0.015625)"/>
     </defs>
     <use xlink:href="#ArialMT-48"/>
     <use xlink:href="#ArialMT-6f" transform="translate(72.216797 0)"/>
     <use xlink:href="#ArialMT-75" transform="translate(127.832031 0)"/>
     <use xlink:href="#ArialMT-72" transform="translate(183.447266 0)"/>
     <use xlink:href="#ArialMT-6c" transform="translate(216.748047 0)"/>
     <use xlink:href="#ArialMT-79" transform="translate(238.964844 0)"/>
     <use xlink:href="#ArialMT-20" transform="translate(288.964844 0)"/>
     <use xlink:href="#ArialMT-42" transform="translate(316.748047 0)"/>
     <use xlink:href="#ArialMT-69" transform="translate(383.447266 0)"/>
     <use xlink:href="#ArialMT-6b" transform="translate(405.664062 0)"/>
     <use xlink:href="#ArialMT-65" transform="translate(455.664062 0)"/>
     <use xlink:href="#ArialMT-20" transform="translate(511.279297 0)"/>
     <use xlink:href="#ArialMT-52" transform="translate(539.0625 0)"/>
     <use xlink:href="#ArialMT-65" transform="translate(611.279297 0)"/>
     <use xlink:href="#ArialMT-6e" transform="translate(666.894531 0)"/>
     <use xlink:href="#ArialMT-74" transform="translate(722.509766 0)"/>
     <use xlink:href="#ArialMT-61" transform="translate(750.292969 0)"/>
     <use xlink:href="#ArialMT-6c" transform="translate(805.908203 0)"/>
     <use xlink:href="#ArialMT-73" transform="translate(828.125 0)"/>
     <use xlink:href="#ArialMT-20" transform="translate(878.125 0)"/>
     <use xlink:href="#ArialMT-41" transform="translate(900.408203 0)"/>
     <use xlink:href="#ArialMT-63" transform="translate(967.107422 0)"/>
     <use xlink:href="#ArialMT-72" transform="translate(1017.107422 0)"/>
     <use xlink:href="#ArialMT-6f" transform="translate(1050.408203 0)"/>
     <use xlink:href="#ArialMT-73" transform="translate(1106.023438 0)"/>
     <use xlink:href="#ArialMT-73" transform="translate(1156.023438 0)"/>
     <use xlink:href="#ArialMT-20" transform="translate(1206.023438 0)"/>
     <use xlink:href="#ArialMT-4d" transform="translate(1233.806641 0)"/>
     <use xlink:href="#ArialMT-6f" transform="translate(1317.107422 0)"/>
     <use xlink:href="#ArialMT-6e" transform="translate(1372.722656 0)"/>
     <use xlink:href="#ArialMT-74" transform="translate(1428.337891 0)"/>
     <use xlink:href="#ArialMT-68" transform="translate(1456.121094 0)"/>
     <use xlink:href="#ArialMT-73" transform="translate(1511.736328 0)"/>
    </g>
   </g>
   <g id="legend_1">
    <g id="patch_7">
     <path d="M 68.59225 231.491406 
L 119.482875 231.491406 
Q 121.482875 231.491406 121.482875 229.491406 
L 121.482875 40.576 
Q 121.482875 38.576 119.482875 38.576 
L 68.59225 38.576 
Q 66.59225 38.576 66.59225 40.576 
L 66.59225 229.491406 
Q 66.59225 231.491406 68.59225 231.491406 
z
" style="fill: #eaeaf2; opacity: 0.8; stroke: #cccccc; stroke-width: 1.5; stroke-linejoin: miter"/>
    </g>
    <g id="text_16">
     <!-- Month -->
     <g style="fill: #262626" transform="translate(71.527156 54.171656) scale(0.162 -0.162)">
      <use xlink:href="#ArialMT-4d"/>
      <use xlink:href="#ArialMT-6f" transform="translate(83.300781 0)"/>
      <use xlink:href="#ArialMT-6e" transform="translate(138.916016 0)"/>
      <use xlink:href="#ArialMT-74" transform="translate(194.53125 0)"/>
      <use xlink:href="#ArialMT-68" transform="translate(222.314453 0)"/>
     </g>
    </g>
    <g id="line2d_37">
     <path d="M 70.59225 66.049219 
L 80.59225 66.049219 
L 90.59225 66.049219 
" style="fill: none; stroke: #edd1cb; stroke-width: 2.25; stroke-linecap: round"/>
    </g>
    <g id="text_17">
     <!-- Jan -->
     <g style="fill: #262626" transform="translate(98.59225 69.549219) scale(0.1 -0.1)">
      <defs>
       <path id="ArialMT-4a" d="M 184 1300 
L 731 1375 
Q 753 850 928 656 
Q 1103 463 1413 463 
Q 1641 463 1806 567 
Q 1972 672 2034 851 
Q 2097 1031 2097 1425 
L 2097 4581 
L 2703 4581 
L 2703 1459 
Q 2703 884 2564 568 
Q 2425 253 2123 87 
Q 1822 -78 1416 -78 
Q 813 -78 492 269 
Q 172 616 184 1300 
z
" transform="scale(0.015625)"/>
      </defs>
      <use xlink:href="#ArialMT-4a"/>
      <use xlink:href="#ArialMT-61" transform="translate(50 0)"/>
      <use xlink:href="#ArialMT-6e" transform="translate(105.615234 0)"/>
     </g>
    </g>
    <g id="line2d_38">
     <path d="M 70.59225 80.194531 
L 80.59225 80.194531 
L 90.59225 80.194531 
" style="fill: none; stroke: #e6bdbc; stroke-width: 2.25; stroke-linecap: round"/>
    </g>
    <g id="text_18">
     <!-- Feb -->
     <g style="fill: #262626" transform="translate(98.59225 83.694531) scale(0.1 -0.1)">
      <defs>
       <path id="ArialMT-46" d="M 525 0 
L 525 4581 
L 3616 4581 
L 3616 4041 
L 1131 4041 
L 1131 2622 
L 3281 2622 
L 3281 2081 
L 1131 2081 
L 1131 0 
L 525 0 
z
" transform="scale(0.015625)"/>
       <path id="ArialMT-62" d="M 941 0 
L 419 0 
L 419 4581 
L 981 4581 
L 981 2947 
Q 1338 3394 1891 3394 
Q 2197 3394 2470 3270 
Q 2744 3147 2920 2923 
Q 3097 2700 3197 2384 
Q 3297 2069 3297 1709 
Q 3297 856 2875 390 
Q 2453 -75 1863 -75 
Q 1275 -75 941 416 
L 941 0 
z
M 934 1684 
Q 934 1088 1097 822 
Q 1363 388 1816 388 
Q 2184 388 2453 708 
Q 2722 1028 2722 1663 
Q 2722 2313 2464 2622 
Q 2206 2931 1841 2931 
Q 1472 2931 1203 2611 
Q 934 2291 934 1684 
z
" transform="scale(0.015625)"/>
      </defs>
      <use xlink:href="#ArialMT-46"/>
      <use xlink:href="#ArialMT-65" transform="translate(61.083984 0)"/>
      <use xlink:href="#ArialMT-62" transform="translate(116.699219 0)"/>
     </g>
    </g>
    <g id="line2d_39">
     <path d="M 70.59225 94.339844 
L 80.59225 94.339844 
L 90.59225 94.339844 
" style="fill: none; stroke: #dda9af; stroke-width: 2.25; stroke-linecap: round"/>
    </g>
    <g id="text_19">
     <!-- Mar -->
     <g style="fill: #262626" transform="translate(98.59225 97.839844) scale(0.1 -0.1)">
      <use xlink:href="#ArialMT-4d"/>
      <use xlink:href="#ArialMT-61" transform="translate(83.300781 0)"/>
      <use xlink:href="#ArialMT-72" transform="translate(138.916016 0)"/>
     </g>
    </g>
    <g id="line2d_40">
     <path d="M 70.59225 108.485156 
L 80.59225 108.485156 
L 90.59225 108.485156 
" style="fill: none; stroke: #d194a4; stroke-width: 2.25; stroke-linecap: round"/>
    </g>
    <g id="text_20">
     <!-- Apr -->
     <g style="fill: #262626" transform="translate(98.59225 111.985156) scale(0.1 -0.1)">
      <defs>
       <path id="ArialMT-70" d="M 422 -1272 
L 422 3319 
L 934 3319 
L 934 2888 
Q 1116 3141 1344 3267 
Q 1572 3394 1897 3394 
Q 2322 3394 2647 3175 
Q 2972 2956 3137 2557 
Q 3303 2159 3303 1684 
Q 3303 1175 3120 767 
Q 2938 359 2589 142 
Q 2241 -75 1856 -75 
Q 1575 -75 1351 44 
Q 1128 163 984 344 
L 984 -1272 
L 422 -1272 
z
M 931 1641 
Q 931 1000 1190 694 
Q 1450 388 1819 388 
Q 2194 388 2461 705 
Q 2728 1022 2728 1688 
Q 2728 2322 2467 2637 
Q 2206 2953 1844 2953 
Q 1484 2953 1207 2617 
Q 931 2281 931 1641 
z
" transform="scale(0.015625)"/>
      </defs>
      <use xlink:href="#ArialMT-41"/>
      <use xlink:href="#ArialMT-70" transform="translate(66.699219 0)"/>
      <use xlink:href="#ArialMT-72" transform="translate(122.314453 0)"/>
     </g>
    </g>
    <g id="line2d_41">
     <path d="M 70.59225 122.630469 
L 80.59225 122.630469 
L 90.59225 122.630469 
" style="fill: none; stroke: #c3819c; stroke-width: 2.25; stroke-linecap: round"/>
    </g>
    <g id="text_21">
     <!-- May -->
     <g style="fill: #262626" transform="translate(98.59225 126.130469) scale(0.1 -0.1)">
      <use xlink:href="#ArialMT-4d"/>
      <use xlink:href="#ArialMT-61" transform="translate(83.300781 0)"/>
      <use xlink:href="#ArialMT-79" transform="translate(138.916016 0)"/>
     </g>
    </g>
    <g id="line2d_42">
     <path d="M 70.59225 136.892969 
L 80.59225 136.892969 
L 90.59225 136.892969 
" style="fill: none; stroke: #b37093; stroke-width: 2.25; stroke-linecap: round"/>
    </g>
    <g id="text_22">
     <!-- Jun -->
     <g style="fill: #262626" transform="translate(98.59225 140.392969) scale(0.1 -0.1)">
      <use xlink:href="#ArialMT-4a"/>
      <use xlink:href="#ArialMT-75" transform="translate(50 0)"/>
      <use xlink:href="#ArialMT-6e" transform="translate(105.615234 0)"/>
     </g>
    </g>
    <g id="line2d_43">
     <path d="M 70.59225 151.038281 
L 80.59225 151.038281 
L 90.59225 151.038281 
" style="fill: none; stroke: #9f5f8a; stroke-width: 2.25; stroke-linecap: round"/>
    </g>
    <g id="text_23">
     <!-- Jul -->
     <g style="fill: #262626" transform="translate(98.59225 154.538281) scale(0.1 -0.1)">
      <use xlink:href="#ArialMT-4a"/>
      <use xlink:href="#ArialMT-75" transform="translate(50 0)"/>
      <use xlink:href="#ArialMT-6c" transform="translate(105.615234 0)"/>
     </g>
    </g>
    <g id="line2d_44">
     <path d="M 70.59225 165.183594 
L 80.59225 165.183594 
L 90.59225 165.183594 
" style="fill: none; stroke: #8a5081; stroke-width: 2.25; stroke-linecap: round"/>
    </g>
    <g id="text_24">
     <!-- Aug -->
     <g style="fill: #262626" transform="translate(98.59225 168.683594) scale(0.1 -0.1)">
      <use xlink:href="#ArialMT-41"/>
      <use xlink:href="#ArialMT-75" transform="translate(66.699219 0)"/>
      <use xlink:href="#ArialMT-67" transform="translate(122.314453 0)"/>
     </g>
    </g>
    <g id="line2d_45">
     <path d="M 70.59225 179.567969 
L 80.59225 179.567969 
L 90.59225 179.567969 
" style="fill: none; stroke: #744375; stroke-width: 2.25; stroke-linecap: round"/>
    </g>
    <g id="text_25">
     <!-- Sep -->
     <g style="fill: #262626" transform="translate(98.59225 183.067969) scale(0.1 -0.1)">
      <defs>
       <path id="ArialMT-53" d="M 288 1472 
L 859 1522 
Q 900 1178 1048 958 
Q 1197 738 1509 602 
Q 1822 466 2213 466 
Q 2559 466 2825 569 
Q 3091 672 3220 851 
Q 3350 1031 3350 1244 
Q 3350 1459 3225 1620 
Q 3100 1781 2813 1891 
Q 2628 1963 1997 2114 
Q 1366 2266 1113 2400 
Q 784 2572 623 2826 
Q 463 3081 463 3397 
Q 463 3744 659 4045 
Q 856 4347 1234 4503 
Q 1613 4659 2075 4659 
Q 2584 4659 2973 4495 
Q 3363 4331 3572 4012 
Q 3781 3694 3797 3291 
L 3216 3247 
Q 3169 3681 2898 3903 
Q 2628 4125 2100 4125 
Q 1550 4125 1298 3923 
Q 1047 3722 1047 3438 
Q 1047 3191 1225 3031 
Q 1400 2872 2139 2705 
Q 2878 2538 3153 2413 
Q 3553 2228 3743 1945 
Q 3934 1663 3934 1294 
Q 3934 928 3725 604 
Q 3516 281 3123 101 
Q 2731 -78 2241 -78 
Q 1619 -78 1198 103 
Q 778 284 539 648 
Q 300 1013 288 1472 
z
" transform="scale(0.015625)"/>
      </defs>
      <use xlink:href="#ArialMT-53"/>
      <use xlink:href="#ArialMT-65" transform="translate(66.699219 0)"/>
      <use xlink:href="#ArialMT-70" transform="translate(122.314453 0)"/>
     </g>
    </g>
    <g id="line2d_46">
     <path d="M 70.59225 193.713281 
L 80.59225 193.713281 
L 90.59225 193.713281 
" style="fill: none; stroke: #5b3665; stroke-width: 2.25; stroke-linecap: round"/>
    </g>
    <g id="text_26">
     <!-- Oct -->
     <g style="fill: #262626" transform="translate(98.59225 197.213281) scale(0.1 -0.1)">
      <defs>
       <path id="ArialMT-4f" d="M 309 2231 
Q 309 3372 921 4017 
Q 1534 4663 2503 4663 
Q 3138 4663 3647 4359 
Q 4156 4056 4423 3514 
Q 4691 2972 4691 2284 
Q 4691 1588 4409 1038 
Q 4128 488 3612 205 
Q 3097 -78 2500 -78 
Q 1853 -78 1343 234 
Q 834 547 571 1087 
Q 309 1628 309 2231 
z
M 934 2222 
Q 934 1394 1379 917 
Q 1825 441 2497 441 
Q 3181 441 3623 922 
Q 4066 1403 4066 2288 
Q 4066 2847 3877 3264 
Q 3688 3681 3323 3911 
Q 2959 4141 2506 4141 
Q 1863 4141 1398 3698 
Q 934 3256 934 2222 
z
" transform="scale(0.015625)"/>
      </defs>
      <use xlink:href="#ArialMT-4f"/>
      <use xlink:href="#ArialMT-63" transform="translate(77.783203 0)"/>
      <use xlink:href="#ArialMT-74" transform="translate(127.783203 0)"/>
     </g>
    </g>
    <g id="line2d_47">
     <path d="M 70.59225 207.858594 
L 80.59225 207.858594 
L 90.59225 207.858594 
" style="fill: none; stroke: #432a53; stroke-width: 2.25; stroke-linecap: round"/>
    </g>
    <g id="text_27">
     <!-- Nov -->
     <g style="fill: #262626" transform="translate(98.59225 211.358594) scale(0.1 -0.1)">
      <defs>
       <path id="ArialMT-4e" d="M 488 0 
L 488 4581 
L 1109 4581 
L 3516 984 
L 3516 4581 
L 4097 4581 
L 4097 0 
L 3475 0 
L 1069 3600 
L 1069 0 
L 488 0 
z
" transform="scale(0.015625)"/>
      </defs>
      <use xlink:href="#ArialMT-4e"/>
      <use xlink:href="#ArialMT-6f" transform="translate(72.216797 0)"/>
      <use xlink:href="#ArialMT-76" transform="translate(127.832031 0)"/>
     </g>
    </g>
    <g id="line2d_48">
     <path d="M 70.59225 222.003906 
L 80.59225 222.003906 
L 90.59225 222.003906 
" style="fill: none; stroke: #2d1e3e; stroke-width: 2.25; stroke-linecap: round"/>
    </g>
    <g id="text_28">
     <!-- Dec -->
     <g style="fill: #262626" transform="translate(98.59225 225.503906) scale(0.1 -0.1)">
      <defs>
       <path id="ArialMT-44" d="M 494 0 
L 494 4581 
L 2072 4581 
Q 2606 4581 2888 4516 
Q 3281 4425 3559 4188 
Q 3922 3881 4101 3404 
Q 4281 2928 4281 2316 
Q 4281 1794 4159 1391 
Q 4038 988 3847 723 
Q 3656 459 3429 307 
Q 3203 156 2883 78 
Q 2563 0 2147 0 
L 494 0 
z
M 1100 541 
L 2078 541 
Q 2531 541 2789 625 
Q 3047 709 3200 863 
Q 3416 1078 3536 1442 
Q 3656 1806 3656 2325 
Q 3656 3044 3420 3430 
Q 3184 3816 2847 3947 
Q 2603 4041 2063 4041 
L 1100 4041 
L 1100 541 
z
" transform="scale(0.015625)"/>
      </defs>
      <use xlink:href="#ArialMT-44"/>
      <use xlink:href="#ArialMT-65" transform="translate(72.216797 0)"/>
      <use xlink:href="#ArialMT-63" transform="translate(127.832031 0)"/>
     </g>
    </g>
   </g>
  </g>
 </g>
 <defs>
  <clipPath id="pe6b572b3de">
   <rect x="61.59225" y="33.576" width="640.91175" height="272.988"/>
  </clipPath>
 </defs>
</svg>
